<svg xmlns="http://www.w3.org/2000/svg" width="25" height="25" fill="currentColor" viewBox="0 0 25 25">
  <g clip-path="url(#a)">
    <path fill-rule="evenodd" d="M12.5 23.53c-6.082 0-11.03-4.948-11.03-11.03 0-6.082 4.948-11.03 11.03-11.03 6.082 0 11.03 4.948 11.03 11.03 0 6.082-4.948 11.03-11.03 11.03ZM12.5 0C5.607 0 0 5.607 0 12.5S5.607 25 12.5 25 25 19.393 25 12.5 19.393 0 12.5 0Zm-1.376 15.078-3.532-3.533-1.04 1.04 4.572 4.572 7.813-7.813-1.04-1.04-6.773 6.774Z" clip-rule="evenodd"/>
  </g>
  <defs>
    <clipPath id="a">
      <path d="M0 0h25v25H0z"/>
    </clipPath>
  </defs>
</svg>
