<svg xmlns="http://www.w3.org/2000/svg" width="25" height="25" fill="currentColor" viewBox="0 0 25 25">
  <path d="M8.26 12.459a3.043 3.043 0 0 0-2.812 2.321c-.068.27-.368.386-.628.345-.284-.045-.429-.42-.322-.741.38-1.163 1.156-2.054 2.168-2.536a2.757 2.757 0 0 1 1.732-4.907 2.764 2.764 0 0 1 2.763 2.76c0 .844-.38 1.599-.977 2.108 1.043.466 1.836 1.368 2.262 2.53.118.322.042.641-.226.786a.57.57 0 0 1-.745-.393c-.357-1.371-1.464-2.227-2.866-2.277-.116.009-.232.01-.348.004Zm14.315 3.273v-2.61c0-.4.368-.719.795-.719a.715.715 0 0 1 .737.718v3.252a2.679 2.679 0 0 1-2.678 2.679H4.215c-1.832 0-3.323-1.357-3.323-3.036V4.164A2.679 2.679 0 0 1 3.57 1.486l17.211-.004c1.834 0 3.325 1.357 3.325 3.038l-.003 5.214c-.013.387-.322.666-.734.666-.417 0-.78-.279-.795-.67l-.005-5.21c0-.883-.804-1.499-1.786-1.499H4.214A1.786 1.786 0 0 0 2.43 4.807v11.21c0 .881.803 1.503 1.785 1.503h16.574a1.786 1.786 0 0 0 1.785-1.786l.002-.002ZM8.4 8.148a1.555 1.555 0 0 0 0 3.107 1.555 1.555 0 0 0 0-3.107Zm10.75 6.915h-4.06c-.477 0-.876-.304-.876-.697 0-.393.399-.695.875-.695h4.057c.479 0 .875.302.875.697 0 .393-.398.694-.875.694h.004Zm0-6.733h-4.06c-.477 0-.876-.301-.876-.694 0-.393.399-.695.875-.695h4.057c.479 0 .875.302.875.696 0 .393-.398.693-.875.693h.004Zm0 3.09h-4.06c-.477 0-.876-.3-.876-.695 0-.393.399-.695.875-.695h4.057c.477 0 .875.302.875.697 0 .393-.396.693-.875.693h.004Z"/>
</svg>
